<svg xmlns="http://www.w3.org/2000/svg" viewBox="0 0 1073.26 244.23"><defs><style>.cls-1{font-size:24px;}.cls-1,.cls-10,.cls-6{font-family:RobotoSlab-SemiBold, Roboto Slab;font-weight:600;}.cls-2{fill:#f25041;}.cls-11,.cls-3,.cls-5,.cls-9{fill:none;}.cls-11,.cls-3,.cls-5,.cls-7,.cls-9{stroke:#000;stroke-miterlimit:10;}.cls-3{stroke-width:1.2px;}.cls-4{font-size:10.08px;font-family:RobotoSlab-Regular, Roboto Slab;}.cls-5{stroke-width:0.75px;stroke-dasharray:2 2;}.cls-6{isolation:isolate;font-size:9.19px;}.cls-7{fill:#ef6461;stroke-width:2px;}.cls-11,.cls-8{opacity:0.1;}.cls-11,.cls-9{stroke-width:3px;}.cls-10{font-size:9.04px;}</style></defs><g id="Layer_2" data-name="Layer 2"><g id="lg"><text class="cls-1" transform="translate(15.25 20.53)">How <tspan class="cls-2" x="59.03" y="0">DUDE </tspan><tspan x="131.48" y="0">has appeared over time</tspan></text><line class="cls-3" x1="15.25" y1="25.51" x2="1071.64" y2="25.51"/><text class="cls-4" transform="translate(21.41 200.42)">City fellow</text><text class="cls-4" transform="translate(159.1 200.42)">Dandy</text><text class="cls-4" transform="translate(226.56 200.42)">Fancy <tspan x="-2.77" y="12.09">dresser</tspan></text><path class="cls-5" d="M46.58,129.9l.51,51.89"/><rect x="44.62" y="179.19" width="4.95" height="4.95" transform="translate(-1.8 0.48) rotate(-0.57)"/><path class="cls-5" d="M174.16,151.23l.5,31"/><rect x="172.18" y="179.66" width="4.95" height="4.95" transform="translate(-2.91 2.84) rotate(-0.92)"/><path class="cls-5" d="M238.18,130.22l.52,52"/><rect x="236.22" y="179.66" width="4.95" height="4.95" transform="translate(-1.79 2.37) rotate(-0.57)"/><text class="cls-4" transform="translate(284.72 202.59)">Ranch newcomer</text><path class="cls-5" d="M323.65,112q.25,36.19.52,72.4"/><rect x="321.69" y="181.83" width="4.95" height="4.95" transform="translate(-1.32 2.34) rotate(-0.41)"/><text class="cls-4" transform="translate(389.81 202.59)">Coxcomb</text><path class="cls-5" d="M408.74,87.87q.25,48.29.52,96.56"/><rect x="406.79" y="181.83" width="4.95" height="4.95" transform="translate(-1 2.23) rotate(-0.31)"/><text class="cls-4" transform="translate(442.66 202.59)">Fella</text><path class="cls-5" d="M451.13,87.87q.27,48.29.53,96.56"/><rect x="449.18" y="181.83" width="4.95" height="4.95" transform="translate(-1 2.46) rotate(-0.31)"/><text class="cls-4" transform="translate(519.16 202.59)">Surfer&apos;s <tspan x="-3.95" y="12.09">sobriquet</tspan></text><path class="cls-5" d="M534.28,131.62q.26,26.4.52,52.81"/><rect x="532.32" y="181.83" width="4.95" height="4.95" transform="translate(-1.77 5.23) rotate(-0.56)"/><text class="cls-4" transform="translate(573.56 202.59)">Bro</text><path class="cls-5" d="M578.62,109.86q.27,37.28.52,74.57"/><rect x="576.67" y="181.83" width="4.95" height="4.95" transform="translate(-1.28 4.06) rotate(-0.4)"/><text class="cls-4" transform="translate(663.3 202.59)">&quot;Yo, ___!&quot;</text><path class="cls-5" d="M682.15,151.18l.51,33.25"/><rect x="680.18" y="181.83" width="4.95" height="4.95" transform="translate(-2.71 10.34) rotate(-0.87)"/><text class="cls-4" transform="translate(843.73 202.59)">Guy</text><path class="cls-5" d="M850,109.86q.26,37.28.52,74.57"/><rect x="848.08" y="181.83" width="4.95" height="4.95" transform="translate(-1.27 5.95) rotate(-0.4)"/><text class="cls-4" transform="translate(918.9 202.59)">&quot;C&apos;mon, man!&quot;</text><path class="cls-5" d="M1001.66,110q0,10,0,20H949.22l.52,54.44"/><rect x="947.26" y="181.83" width="4.95" height="4.95" transform="translate(-1.7 9.01) rotate(-0.54)"/><text class="cls-4" transform="translate(752.01 202.59)">Young guy, <tspan x="6.85" y="12.09">slangily</tspan></text><path class="cls-5" d="M746.5,110v20H781q-.16,27.22-.34,54.44"/><rect x="778.2" y="181.83" width="4.95" height="4.95" transform="translate(591.5 963.82) rotate(-89.64)"/><text class="cls-4" transform="translate(1000.96 202.59)">One stoner <tspan x="1.17" y="12.09">to another</tspan></text><path class="cls-5" d="M1023.41,91.13q.26,46.65.52,93.3"/><rect x="1021.46" y="181.83" width="4.95" height="4.95" transform="translate(-1.02 5.76) rotate(-0.32)"/><text class="cls-6" transform="translate(141.26 58.78) rotate(0.06)">1980</text><text class="cls-6" transform="translate(34.06 58.78) rotate(0.06)">1975</text><text class="cls-6" transform="translate(247.85 58.87) rotate(0.06)">1985</text><text class="cls-6" transform="translate(353.99 58.97) rotate(0.06)">1990</text><text class="cls-6" transform="translate(458.4 59.06) rotate(0.06)">1995</text><text class="cls-6" transform="translate(670.31 59.24) rotate(0.06)">2005</text><text class="cls-6" transform="translate(564.91 59.15) rotate(0.06)">2000</text><text class="cls-6" transform="translate(777.03 59.34) rotate(0.06)">2010</text><text class="cls-6" transform="translate(882.47 59.43) rotate(0.06)">2015</text><rect id="_1977-38" data-name="1977-38" class="cls-7" x="61.36" y="74.32" width="14.45" height="14.45"/><rect id="_1977-38-2" data-name="1977-38" class="cls-7" x="81.47" y="74.32" width="14.45" height="14.45"/><rect id="_1977-38-3" data-name="1977-38" class="cls-7" x="124.04" y="95.4" width="14.45" height="14.45"/><rect id="_1977-38-4" data-name="1977-38" class="cls-7" x="124.04" y="74.32" width="14.45" height="14.45"/><rect id="_1977-38-5" data-name="1977-38" class="cls-7" x="166.25" y="115.77" width="14.45" height="14.45"/><rect id="_1977-38-6" data-name="1977-38" class="cls-7" x="166.25" y="95.4" width="14.45" height="14.45"/><rect id="_1977-38-7" data-name="1977-38" class="cls-7" x="166.25" y="136.15" width="14.45" height="14.45"/><rect id="_1977-38-8" data-name="1977-38" class="cls-7" x="676.16" y="136.15" width="14.45" height="14.45"/><rect id="_1977-38-9" data-name="1977-38" class="cls-7" x="166.25" y="74.32" width="14.45" height="14.45"/><rect id="_1977-38-10" data-name="1977-38" class="cls-7" x="209.18" y="74.32" width="14.45" height="14.45"/><rect id="_1977-38-11" data-name="1977-38" class="cls-7" x="230.38" y="115.77" width="14.45" height="14.45"/><rect id="_1977-38-12" data-name="1977-38" class="cls-7" x="230.38" y="95.4" width="14.45" height="14.45"/><rect id="_1977-38-13" data-name="1977-38" class="cls-7" x="230.38" y="74.32" width="14.45" height="14.45"/><rect id="_1977-38-14" data-name="1977-38" class="cls-7" x="39.44" y="115.77" width="14.45" height="14.45"/><rect id="_1977-38-15" data-name="1977-38" class="cls-7" x="39.44" y="95.4" width="14.45" height="14.45"/><rect id="_1977-38-16" data-name="1977-38" class="cls-7" x="39.44" y="74.32" width="14.45" height="14.45"/><rect id="_1977-38-17" data-name="1977-38" class="cls-7" x="273.68" y="95.4" width="14.45" height="14.45"/><rect id="_1977-38-18" data-name="1977-38" class="cls-7" x="273.68" y="74.32" width="14.45" height="14.45"/><rect id="_1977-38-19" data-name="1977-38" class="cls-7" x="315.52" y="95.4" width="14.45" height="14.45"/><rect id="_1977-38-20" data-name="1977-38" class="cls-7" x="315.52" y="74.32" width="14.45" height="14.45"/><rect id="_1977-38-21" data-name="1977-38" class="cls-7" x="336" y="74.32" width="14.45" height="14.45"/><rect id="_1977-38-22" data-name="1977-38" class="cls-7" x="357.73" y="95.4" width="14.45" height="14.45"/><rect id="_1977-38-23" data-name="1977-38" class="cls-7" x="357.73" y="74.32" width="14.45" height="14.45"/><rect id="_1977-38-24" data-name="1977-38" class="cls-7" x="378.66" y="115.77" width="14.45" height="14.45"/><rect id="_1977-38-25" data-name="1977-38" class="cls-7" x="378.66" y="95.4" width="14.45" height="14.45"/><rect id="_1977-38-26" data-name="1977-38" class="cls-7" x="378.66" y="74.32" width="14.45" height="14.45"/><rect id="_1977-38-27" data-name="1977-38" class="cls-7" x="401.34" y="74.32" width="14.45" height="14.45"/><rect id="_1977-38-28" data-name="1977-38" class="cls-7" x="421.45" y="74.32" width="14.45" height="14.45"/><rect id="_1977-38-29" data-name="1977-38" class="cls-7" x="442.11" y="74.32" width="14.45" height="14.45"/><rect id="_1977-38-30" data-name="1977-38" class="cls-7" x="526.89" y="115.77" width="14.45" height="14.45"/><rect id="_1977-38-31" data-name="1977-38" class="cls-7" x="526.89" y="95.4" width="14.45" height="14.45"/><rect id="_1977-38-32" data-name="1977-38" class="cls-7" x="526.89" y="74.32" width="14.45" height="14.45"/><rect id="_1977-38-33" data-name="1977-38" class="cls-7" x="549.17" y="74.32" width="14.45" height="14.45"/><rect id="_1977-38-34" data-name="1977-38" class="cls-7" x="570.36" y="95.4" width="14.45" height="14.45"/><rect id="_1977-38-35" data-name="1977-38" class="cls-7" x="570.36" y="74.32" width="14.45" height="14.45"/><rect id="_1977-38-36" data-name="1977-38" class="cls-7" x="633.77" y="95.4" width="14.45" height="14.45"/><rect id="_1977-38-37" data-name="1977-38" class="cls-7" x="633.77" y="74.32" width="14.45" height="14.45"/><rect id="_1977-38-38" data-name="1977-38" class="cls-7" x="655.51" y="115.77" width="14.45" height="14.45"/><rect id="_1977-38-39" data-name="1977-38" class="cls-7" x="655.51" y="95.4" width="14.45" height="14.45"/><rect id="_1977-38-40" data-name="1977-38" class="cls-7" x="655.51" y="74.32" width="14.45" height="14.45"/><rect id="_1977-38-41" data-name="1977-38" class="cls-7" x="675.98" y="115.77" width="14.45" height="14.45"/><rect id="_1977-38-42" data-name="1977-38" class="cls-7" x="675.98" y="95.4" width="14.45" height="14.45"/><rect id="_1977-38-43" data-name="1977-38" class="cls-7" x="675.98" y="74.32" width="14.45" height="14.45"/><rect id="_1977-38-44" data-name="1977-38" class="cls-7" x="697.72" y="95.4" width="14.45" height="14.45"/><rect id="_1977-38-45" data-name="1977-38" class="cls-7" x="697.72" y="74.32" width="14.45" height="14.45"/><rect id="_1977-38-46" data-name="1977-38" class="cls-7" x="738.39" y="95.4" width="14.45" height="14.45"/><rect id="_1977-38-47" data-name="1977-38" class="cls-7" x="738.39" y="74.32" width="14.45" height="14.45"/><rect id="_1977-38-48" data-name="1977-38" class="cls-7" x="800.71" y="74.32" width="14.45" height="14.45"/><rect id="_1977-38-49" data-name="1977-38" class="cls-7" x="843.37" y="95.4" width="14.45" height="14.45"/><rect id="_1977-38-50" data-name="1977-38" class="cls-7" x="843.37" y="74.32" width="14.45" height="14.45"/><rect id="_1977-38-51" data-name="1977-38" class="cls-7" x="867.15" y="74.32" width="14.45" height="14.45"/><rect id="_1977-38-52" data-name="1977-38" class="cls-7" x="888.08" y="115.77" width="14.45" height="14.45"/><rect id="_1977-38-53" data-name="1977-38" class="cls-7" x="888.08" y="95.4" width="14.45" height="14.45"/><rect id="_1977-38-54" data-name="1977-38" class="cls-7" x="888.08" y="74.32" width="14.45" height="14.45"/><rect id="_1977-38-55" data-name="1977-38" class="cls-7" x="908.55" y="74.32" width="14.45" height="14.45"/><rect id="_1977-38-56" data-name="1977-38" class="cls-7" x="995.14" y="95.4" width="14.45" height="14.45"/><rect id="_1977-38-57" data-name="1977-38" class="cls-7" x="995.14" y="74.32" width="14.45" height="14.45"/><rect id="_1977-38-58" data-name="1977-38" class="cls-7" x="1016.07" y="74.32" width="14.45" height="14.45"/><rect id="_1977-38-59" data-name="1977-38" class="cls-7" x="1037.26" y="95.4" width="14.45" height="14.45"/><rect id="_1977-38-60" data-name="1977-38" class="cls-7" x="1037.26" y="74.32" width="14.45" height="14.45"/><g id="columns-svg" class="cls-8"><line class="cls-9" x1="46.24" y1="70.23" x2="46.24" y2="63.94"/><line class="cls-9" x1="67.43" y1="70.23" x2="67.43" y2="63.94"/><line class="cls-9" x1="88.62" y1="70.23" x2="88.62" y2="63.94"/><line class="cls-9" x1="109.81" y1="70.23" x2="109.81" y2="63.94"/><line class="cls-9" x1="131" y1="70.23" x2="131" y2="63.94"/><line class="cls-9" x1="152.19" y1="70.23" x2="152.19" y2="63.94"/><line class="cls-9" x1="173.38" y1="70.23" x2="173.38" y2="63.94"/><line class="cls-9" x1="195.07" y1="70.23" x2="195.07" y2="63.94"/><line class="cls-9" x1="216.26" y1="70.23" x2="216.26" y2="63.94"/><line class="cls-9" x1="237.45" y1="70.23" x2="237.45" y2="63.94"/><line class="cls-9" x1="258.64" y1="70.23" x2="258.64" y2="63.94"/><line class="cls-9" x1="279.83" y1="70.23" x2="279.83" y2="63.94"/><line class="cls-9" x1="301.02" y1="70.23" x2="301.02" y2="63.94"/><line class="cls-9" x1="322.21" y1="70.23" x2="322.21" y2="63.94"/><line class="cls-9" x1="343.4" y1="70.23" x2="343.4" y2="63.94"/><line class="cls-9" x1="364.6" y1="70.23" x2="364.6" y2="63.94"/><line class="cls-9" x1="385.79" y1="70.23" x2="385.79" y2="63.94"/><line class="cls-9" x1="406.98" y1="70.23" x2="406.98" y2="63.94"/><line class="cls-9" x1="428.17" y1="70.23" x2="428.17" y2="63.94"/><line class="cls-9" x1="449.36" y1="70.23" x2="449.36" y2="63.94"/><line class="cls-9" x1="470.55" y1="70.23" x2="470.55" y2="63.94"/><line class="cls-9" x1="491.74" y1="70.23" x2="491.74" y2="63.94"/><line class="cls-9" x1="512.93" y1="70.23" x2="512.93" y2="63.94"/><line class="cls-9" x1="534.12" y1="70.23" x2="534.12" y2="63.94"/><line class="cls-9" x1="555.31" y1="70.23" x2="555.31" y2="63.94"/><line class="cls-9" x1="576.5" y1="70.23" x2="576.5" y2="63.94"/><line class="cls-9" x1="598.17" y1="70.23" x2="598.17" y2="63.94"/><line class="cls-9" x1="619.36" y1="70.23" x2="619.36" y2="63.94"/><line class="cls-9" x1="640.55" y1="70.23" x2="640.55" y2="63.94"/><line class="cls-9" x1="661.74" y1="70.23" x2="661.74" y2="63.94"/><line class="cls-9" x1="682.93" y1="70.23" x2="682.93" y2="63.94"/><line class="cls-9" x1="704.12" y1="70.23" x2="704.12" y2="63.94"/><line class="cls-9" x1="725.31" y1="70.23" x2="725.31" y2="63.94"/><line class="cls-9" x1="746.54" y1="70.23" x2="746.54" y2="63.94"/></g><g id="columns-svg-2" data-name="columns-svg" class="cls-8"><line class="cls-9" x1="789.18" y1="70.23" x2="789.18" y2="63.94"/><line class="cls-9" x1="810.37" y1="70.23" x2="810.37" y2="63.94"/><line class="cls-9" x1="831.56" y1="70.23" x2="831.56" y2="63.94"/><line class="cls-9" x1="852.75" y1="70.23" x2="852.75" y2="63.94"/><line class="cls-9" x1="873.94" y1="70.23" x2="873.94" y2="63.94"/><line class="cls-9" x1="895.13" y1="70.23" x2="895.13" y2="63.94"/><line class="cls-9" x1="916.32" y1="70.23" x2="916.32" y2="63.94"/><line class="cls-9" x1="937.51" y1="70.23" x2="937.51" y2="63.94"/><line class="cls-9" x1="959.2" y1="70.23" x2="959.2" y2="63.94"/><line class="cls-9" x1="980.39" y1="70.23" x2="980.39" y2="63.94"/><line class="cls-9" x1="1001.58" y1="70.23" x2="1001.58" y2="63.94"/><line class="cls-9" x1="1022.77" y1="70.23" x2="1022.77" y2="63.94"/><line class="cls-9" x1="1043.97" y1="70.23" x2="1043.97" y2="63.94"/></g><text class="cls-10" transform="translate(990.65 59.1) rotate(0.06)">2020</text><line class="cls-11" x1="768" y1="70.23" x2="768" y2="63.94"/></g></g></svg>