<svg xmlns="http://www.w3.org/2000/svg" viewBox="0 0 304.72 50.63"><defs><style>.cls-1{fill:#f25041;stroke-width:1.5px;}.cls-1,.cls-4{stroke:#000;stroke-miterlimit:10;}.cls-2{isolation:isolate;font-size:10.65px;}.cls-2,.cls-5{font-family:RobotoSlab-SemiBold, Roboto Slab;font-weight:600;}.cls-3,.cls-5{font-size:5px;}.cls-3{font-family:RobotoSlab-Regular, Roboto Slab;}.cls-4{fill:none;stroke-width:0.5px;stroke-dasharray:2 2;}</style></defs><g id="Layer_2" data-name="Layer 2"><g id="Layer_1-2" data-name="Layer 1"><path class="cls-1" d="M247.4,31.15V41.53H143.79V31.15Z"/><path class="cls-1" d="M144.11,31.15V41.53H56.79V31.15Z"/><path class="cls-1" d="M217.57,9.8V20.18H197.78V9.8Z"/><path class="cls-1" d="M169.14,9.8V20.18H150.51V9.8Z"/><path class="cls-1" d="M100.39,9.8V20.18H85.26V9.8Z"/><path class="cls-1" d="M85.08,9.8V20.18H72.28V9.8Z"/><path class="cls-1" d="M181,9.8V20.18H169.31V9.8Z"/><path class="cls-1" d="M130,9.8V20.18H119.54V9.8Z"/><path class="cls-1" d="M119.37,9.8V20.18H108.89V9.8Z"/><path class="cls-1" d="M72.1,9.8V20.18H62.79V9.8Z"/><path class="cls-1" d="M139.51,9.8V20.18H130.2V9.8Z"/><path class="cls-1" d="M197.6,9.8V20.18h-9.31V9.8Z"/><path class="cls-1" d="M108.72,9.8V20.18h-8.15V9.8Z"/><path class="cls-1" d="M188.12,9.8V20.18h-7V9.8Z"/><path class="cls-1" d="M150.34,9.8V20.18h-5.82V9.8Z"/><path class="cls-1" d="M144.34,9.8V20.18h-4.66V9.8Z"/><path class="cls-1" d="M62.61,9.8V20.18H59.12V9.8Z"/><path class="cls-1" d="M57.94,9.8V20.18H56.78V9.8Z"/><text class="cls-2" transform="translate(0 18.28) scale(1.05 1)">Maneska</text><text class="cls-3" transform="translate(121.18 4.28) scale(1.15 1)">16 YEARS </text><text class="cls-3" transform="translate(135 49.28) scale(1.15 1)">2 YEARS </text><text class="cls-2" transform="translate(14.54 39.28) scale(1.05 1)">Shortz</text><line class="cls-4" x1="146.06" y1="3.44" x2="217.5" y2="3.44"/><rect x="217.25" y="1.82" width="0.5" height="3.25"/><line class="cls-4" x1="56" y1="3.44" x2="119.77" y2="3.44"/><rect x="55.75" y="1.82" width="0.5" height="3.25"/><line class="cls-4" x1="157.97" y1="47.44" x2="247.5" y2="47.44"/><rect x="247.25" y="45.82" width="0.5" height="3.25"/><line class="cls-4" x1="56" y1="47.44" x2="132.8" y2="47.44"/><rect x="55.75" y="45.82" width="0.5" height="3.25"/><text class="cls-5" transform="translate(224.08 15.79) scale(1.15 1)">= 135 SLANG TERMS</text><text class="cls-5" transform="translate(254.08 36.8) scale(1.15 1)">= 164 SLANG TERMS</text></g></g></svg>