<svg xmlns="http://www.w3.org/2000/svg" viewBox="0 0 547.3 362.53"><defs><style>.cls-1{fill:#201717;}.cls-2{fill:#ed6360;}</style></defs><g id="Layer_2" data-name="Layer 2"><g id="Layer_1-2" data-name="Layer 1"><path class="cls-1" d="M0,362.53c1.67-1.5.71-3.44.71-5.13Q.8,270.48.65,183.55c0-4.65,1.27-5.64,5.73-5.63q84.21.22,168.43.1,91.44,0,182.88.1c4.18,0,5.52-.72,5.51-5.31C363,117,363.13,61.24,363,5.46,363,1,364.11,0,368.47,0Q455.18.25,541.9,0c4.5,0,5.42,1.2,5.4,5.51q-.22,86.69,0,173.35c0,4.37-.84,5.81-5.59,5.79-56.81-.19-113.63-.07-170.44-.22-4.1,0-5.17.92-5.16,5.12.16,56.28.1,112.57.15,168.85,0,1.36-.84,3,.72,4.13Zm92.48-3.36c28,0,56-.09,84,.09,4.21,0,5.62-.79,5.6-5.38q-.27-83.67,0-167.33c0-4-.83-5.31-5.12-5.3q-83.94.23-167.9,0c-4.32,0-5.13,1.34-5.12,5.34Q4,270,3.85,353.42c0,4.43.94,5.91,5.67,5.86C37.17,359.05,64.83,359.17,92.48,359.17Zm92.58-89.12c0,28,.09,55.94-.09,83.91,0,4.06.89,5.32,5.16,5.31q83.94-.22,167.89,0c3.76,0,5.11-.8,5.1-4.88q-.19-83.91,0-167.82c0-4-.95-5.31-5.22-5.29q-83.7.23-167.39,0c-4.25,0-5.6.84-5.56,5.4C185.19,214.45,185.06,242.25,185.06,270.05ZM544.25,92.67c0-28-.08-56,.08-83.95,0-4-.84-5.39-5.16-5.38q-83.73.23-167.46,0c-4.54,0-5.47,1.4-5.46,5.66q.21,83.19,0,166.39c0,4.41.94,6,5.75,6q83.48-.26,167,0c4.09,0,5.4-1,5.37-5.24C544.16,148.3,544.25,120.48,544.25,92.67Z"/><path class="cls-2" d="M92.48,359.17c-27.65,0-55.31-.12-83,.11-4.73.05-5.68-1.43-5.67-5.86q.21-83.42,0-166.83c0-4,.8-5.35,5.12-5.34q84,.23,167.9,0c4.29,0,5.13,1.27,5.12,5.3q-.19,83.67,0,167.33c0,4.59-1.39,5.41-5.6,5.38C148.45,359.08,120.46,359.17,92.48,359.17Z"/><path class="cls-2" d="M185.06,270.05c0-27.8.13-55.6-.12-83.4,0-4.56,1.31-5.41,5.56-5.4q83.69.23,167.39,0c4.27,0,5.23,1.28,5.22,5.29q-.17,83.91,0,167.82c0,4.08-1.34,4.89-5.1,4.88q-84-.17-167.89,0c-4.27,0-5.19-1.25-5.16-5.31C185.15,326,185.06,298,185.06,270.05Z"/><path class="cls-2" d="M544.25,92.67c0,27.81-.09,55.63.09,83.44,0,4.25-1.28,5.25-5.37,5.24q-83.48-.19-167,0c-4.81,0-5.76-1.57-5.75-6q.19-83.19,0-166.39c0-4.26.92-5.67,5.46-5.66q83.73.24,167.46,0c4.32,0,5.19,1.37,5.16,5.38C544.17,36.7,544.25,64.68,544.25,92.67Z"/></g></g></svg>