<svg xmlns="http://www.w3.org/2000/svg" viewBox="0 0 547.12 365.81"><defs><style>.cls-1{fill:#201717;}.cls-2{fill:#ed6360;}</style></defs><g id="Layer_2" data-name="Layer 2"><g id="Layer_1-2" data-name="Layer 1"><path class="cls-1" d="M0,365.81c.89-1.57.36-3.26.36-4.88Q.42,274,.27,187.07c0-5,1.46-5.9,6.12-5.88,56.65.17,113.3.06,169.94.2,4.23,0,5.56-.82,5.54-5.4-.18-57.12-.11-114.24-.16-171.36,0-1.52.89-3.31-.72-4.63H366q0,88.94-.2,177.86c0,4.3,2.42,3.43,4.77,3.43,57,0,114,.07,171-.11,4.69,0,5.62,1.33,5.61,5.75q-.25,89.45-.15,178.88ZM455,184.62c-28.15,0-56.3,0-84.45-.05-3.15,0-4.73.35-4.72,4.19q.18,84.68,0,169.33c0,3.56,1.14,4.42,4.55,4.42q84.45-.13,168.9,0c3.83,0,4.68-1.12,4.67-4.77q-.16-84.17,0-168.33c0-4-1.21-4.91-5-4.89C511,184.69,483,184.62,455,184.62ZM274,181c27.82,0,55.65-.09,83.47.1,4.2,0,5.24-1.19,5.23-5.29q-.19-83.43,0-166.87c0-4.38-1.15-5.64-5.59-5.63q-83.48.23-167,0c-4,0-5.33,1-5.32,5.18q.21,83.94,0,167.87c0,3.71.9,4.74,4.67,4.72C217.68,180.89,245.84,181,274,181ZM3.72,272.85c0,28,.12,56-.11,83.95,0,4.7,1.41,5.75,5.89,5.74q83-.23,166,0c4.62,0,6.29-1,6.28-6q-.27-83.2,0-166.39c0-4.27-.93-5.67-5.47-5.66q-83.73.24-167.46,0c-4.32,0-5.18,1.38-5.15,5.38C3.8,217.56,3.72,245.21,3.72,272.85Zm181.32.46c0,28,.08,55.93-.1,83.9,0,4,.85,5.35,5.15,5.33q83.44-.23,166.88,0c4,0,5.47-.83,5.46-5.16q-.21-83.91,0-167.81c0-4-1.11-5-5-5q-83.7.18-167.39,0c-4.39,0-5.07,1.45-5.05,5.38C185.11,217.7,185,245.5,185,273.31Z"/><path class="cls-2" d="M455,184.62c28,0,56,.07,84-.08,3.81,0,5,.86,5,4.89q-.21,84.16,0,168.33c0,3.65-.84,4.78-4.67,4.77q-84.45-.19-168.9,0c-3.41,0-4.56-.86-4.55-4.42q.15-84.66,0-169.33c0-3.84,1.57-4.2,4.72-4.19C398.71,184.66,426.86,184.62,455,184.62Z"/><path class="cls-2" d="M274,181c-28.16,0-56.32-.07-84.48.09-3.77,0-4.68-1-4.67-4.72q.18-83.93,0-167.87c0-4.23,1.27-5.19,5.32-5.18q83.48.2,167,0c4.44,0,5.61,1.25,5.59,5.63q-.21,83.43,0,166.87c0,4.1-1,5.32-5.23,5.29C329.65,180.87,301.82,181,274,181Z"/><path class="cls-2" d="M3.72,272.85c0-27.64.08-55.29-.08-82.94,0-4,.83-5.39,5.15-5.38q83.73.22,167.46,0c4.54,0,5.48,1.39,5.47,5.66q-.21,83.19,0,166.39c0,5-1.66,6-6.28,6q-83-.23-166,0c-4.48,0-5.93-1-5.89-5.74C3.84,328.82,3.72,300.84,3.72,272.85Z"/><path class="cls-2" d="M185,273.31c0-27.81.07-55.61-.09-83.41,0-3.93.66-5.39,5.05-5.38q83.7.24,167.39,0c3.92,0,5,1.05,5,5q-.19,83.89,0,167.81c0,4.33-1.48,5.17-5.46,5.16q-83.43-.16-166.88,0c-4.3,0-5.17-1.29-5.15-5.33C185.12,329.24,185,301.28,185,273.31Z"/></g></g></svg>