<svg xmlns="http://www.w3.org/2000/svg" viewBox="0 0 547.15 365.81"><defs><style>.cls-1{fill:#201717;}.cls-2{fill:#ed6360;}</style></defs><g id="Layer_2" data-name="Layer 2"><g id="Layer_1-2" data-name="Layer 1"><path class="cls-1" d="M362.14,365.81a30.13,30.13,0,0,0,.38-3.38q0-86.39.11-172.75c0-4.05-.84-5.28-5.11-5.27q-83.92.22-167.84,0c-4.46,0-5.4,1.21-5.39,5.52.15,57.09.09,114.17.15,171.26,0,1.52-.9,3.31.72,4.63H.17q0-90.19-.17-180.38c0-4.49,2.14-4.16,5.13-4.16,56.82,0,113.64,0,170.46.12,4.3,0,5.81-.73,5.79-5.53-.23-58.62-.19-117.24-.22-175.86h185c-.85,1.22-.36,2.59-.36,3.88,0,57.31,0,114.61-.15,171.91,0,4.74,1.42,5.61,5.8,5.6,56.67-.14,113.33,0,170-.2,4.58,0,5.74,1.16,5.73,5.73q-.21,89.45,0,178.89ZM92.27,184.62c-28.15,0-56.3,0-84.45-.05-3.2,0-4.67.41-4.66,4.21q.18,84.66,0,169.33c0,3.56,1.09,4.41,4.51,4.4q84.45-.15,168.9,0c3.83,0,4.71-1.13,4.71-4.79q-.16-84.17,0-168.32c0-4.1-1.33-4.89-5.08-4.87C148.24,184.69,120.26,184.62,92.27,184.62Zm92.25-92.68c0,28,.08,56-.08,83.95,0,4,.93,5.4,5.21,5.39q84-.21,168,0c3.54,0,4.91-.67,4.9-4.61q-.19-84.19,0-168.39c0-4-1.25-5-5.11-5q-83.73.17-167.47,0c-4.56,0-5.51,1.5-5.49,5.74C184.6,36.64,184.52,64.29,184.52,91.94Zm270.11,92.68c-27.83,0-55.65.08-83.48-.08-4,0-5.39.84-5.38,5.15q.23,83.7,0,167.39c0,4.53,1.4,5.47,5.66,5.46q83.24-.21,166.47,0c4.41,0,6-.94,6-5.75q-.27-83.43,0-166.88c0-4.08-1-5.4-5.23-5.37C510.62,184.71,482.63,184.63,454.63,184.62Z"/><path class="cls-2" d="M92.27,184.62c28,0,56,.07,84-.07,3.75,0,5.09.77,5.08,4.87q-.23,84.15,0,168.32c0,3.66-.88,4.8-4.71,4.79q-84.45-.19-168.9,0c-3.42,0-4.52-.84-4.51-4.4q.15-84.66,0-169.33c0-3.8,1.46-4.23,4.66-4.21C36,184.67,64.12,184.62,92.27,184.62Z"/><path class="cls-2" d="M184.52,91.94c0-27.65.08-55.3-.09-82.94,0-4.24.93-5.75,5.49-5.74q83.73.24,167.47,0c3.86,0,5.12,1,5.11,5q-.18,84.2,0,168.39c0,3.94-1.36,4.62-4.9,4.61q-84-.15-168,0c-4.28,0-5.24-1.35-5.21-5.39C184.6,147.91,184.52,119.92,184.52,91.94Z"/><path class="cls-2" d="M454.63,184.62c28,0,56,.09,84-.09,4.25,0,5.24,1.29,5.23,5.37q-.18,83.43,0,166.88c0,4.81-1.58,5.76-6,5.75q-83.24-.19-166.47,0c-4.26,0-5.67-.93-5.66-5.46q.24-83.7,0-167.39c0-4.31,1.37-5.18,5.38-5.15C399,184.7,426.8,184.62,454.63,184.62Z"/></g></g></svg>