<svg xmlns="http://www.w3.org/2000/svg" viewBox="0 0 184.27 365.81"><defs><style>.cls-1{fill:#201717;}.cls-2{fill:#ed6360;}</style></defs><g id="Layer_2" data-name="Layer 2"><g id="Layer_1-2" data-name="Layer 1"><path class="cls-1" d="M.05,365.81Q0,209.1,0,52.4,0,26.2.05,0H184c.07,2.16.22,4.32.22,6.47q0,85.61,0,171.2,0,91.83,0,183.66c0,1.49-.15,3-.22,4.48ZM92.56,3.36c-28,0-56,.09-83.95-.09C4.41,3.25,3,4.05,3,8.65Q3.28,92.31,3,176c0,4,.82,5.32,5.12,5.31q84-.24,167.91,0c4.3,0,5.13-1.32,5.12-5.34q-.19-83.41,0-166.83c0-4.41-.93-5.9-5.67-5.86C147.87,3.49,120.21,3.36,92.56,3.36ZM92,184.85c-27.83,0-55.65.08-83.48-.1-4.18,0-5.58.72-5.56,5.34Q3.29,273.52,3,357c0,4.18.76,5.62,5.38,5.6q83.72-.27,167.45,0c4,0,5.34-.94,5.33-5.18q-.21-83.93,0-167.87c0-3.69-.88-4.75-4.67-4.72C148.35,184.92,120.2,184.85,92,184.85Z"/><path class="cls-2" d="M92.56,3.36c27.65,0,55.31.13,83-.11,4.74,0,5.68,1.45,5.67,5.86q-.23,83.42,0,166.83c0,4-.82,5.36-5.12,5.34q-84-.22-167.91,0C3.85,181.3,3,180,3,176Q3.24,92.31,3,8.65c0-4.6,1.4-5.4,5.6-5.38C36.59,3.45,64.58,3.36,92.56,3.36Z"/><path class="cls-2" d="M92,184.85c28.16,0,56.31.07,84.47-.09,3.79,0,4.67,1,4.67,4.72q-.18,83.94,0,167.87c0,4.24-1.29,5.19-5.33,5.18q-83.73-.19-167.45,0C3.79,362.58,3,361.14,3,357q.21-83.44,0-166.87c0-4.62,1.38-5.37,5.56-5.34C36.39,184.93,64.21,184.85,92,184.85Z"/></g></g></svg>