<svg xmlns="http://www.w3.org/2000/svg" viewBox="0 0 366.09 365.89"><defs><style>.cls-1{fill:#201717;}.cls-2{fill:#ed6360;}</style></defs><g id="Layer_2" data-name="Layer 2"><g id="Layer_1-2" data-name="Layer 1"><path class="cls-1" d="M181.11,365.89c1.61-1.32.71-3.11.71-4.63.06-57.07,0-114.13.14-171.2,0-4.2-.75-5.59-5.33-5.59-58.58.1-117.16,0-175.74-.09-.26,0-.52.39-.77.6Q.12,94.61,0,4.24C0,.41,1.07,0,4.44,0Q185.27.14,366.09.08q0,89.58-.09,179.16,0,92.34,0,184.67c0,.66.06,1.32.09,2ZM92.49,181.26c27.83,0,55.67-.1,83.5.1,4.34,0,5.59-1,5.58-5.49q-.24-83.46,0-166.91c0-4.31-1-5.63-5.52-5.62q-83.49.24-167,0c-4.18,0-5.3,1.17-5.29,5.31q.19,83.7,0,167.41c0,4.13,1.07,5.31,5.25,5.29C36.83,181.17,64.66,181.26,92.49,181.26ZM273.65,181c28,0,56-.09,84,.1,4.23,0,5.19-1.28,5.18-5.33q-.18-83.43,0-166.87c0-4.43-1.25-5.6-5.63-5.59q-83.47.21-166.95,0c-4.1,0-5.29,1-5.28,5.23q.21,83.93,0,167.87c0,3.77,1,4.7,4.72,4.68C217.67,181,245.66,181,273.65,181Zm-88.6,92.39c0,28,.09,55.94-.1,83.91,0,4.14,1.08,5.28,5.24,5.27q83.46-.19,166.9,0c4.24,0,5.75-.92,5.74-5.48q-.24-83.67,0-167.33c0-4.31-1.41-5.19-5.41-5.18q-83.7.18-167.4,0c-4.42,0-5.07,1.51-5,5.42C185.12,217.82,185.05,245.62,185.05,273.43Z"/><path class="cls-2" d="M92.49,181.26c-27.83,0-55.66-.09-83.49.1-4.18,0-5.26-1.16-5.25-5.29q.19-83.7,0-167.41C3.74,4.52,4.86,3.34,9,3.35q83.49.21,167,0c4.49,0,5.53,1.31,5.52,5.62q-.2,83.46,0,166.91c0,4.48-1.24,5.52-5.58,5.49C148.16,181.16,120.32,181.26,92.49,181.26Z"/><path class="cls-2" d="M273.65,181c-28,0-56-.07-84,.09-3.71,0-4.73-.91-4.72-4.68q.19-83.94,0-167.87c0-4.19,1.18-5.23,5.28-5.23q83.47.21,167,0c4.38,0,5.65,1.16,5.63,5.59q-.21,83.43,0,166.87c0,4.05-.95,5.35-5.18,5.33C329.64,181,301.65,181,273.65,181Z"/><path class="cls-2" d="M185.05,273.43c0-27.81.07-55.61-.08-83.41,0-3.91.62-5.43,5-5.42q83.7.24,167.4,0c4,0,5.42.87,5.41,5.18q-.21,83.67,0,167.33c0,4.56-1.5,5.49-5.74,5.48q-83.44-.19-166.9,0c-4.16,0-5.26-1.13-5.24-5.27C185.14,329.37,185.05,301.4,185.05,273.43Z"/></g></g></svg>