<svg xmlns="http://www.w3.org/2000/svg" viewBox="0 0 365.99 365.81"><defs><style>.cls-1{fill:#201717;}.cls-2{fill:#ed6360;}</style></defs><g id="Layer_2" data-name="Layer 2"><g id="Layer_1-2" data-name="Layer 1"><path class="cls-1" d="M181,365.81c1.61-1.32.71-3.11.72-4.63,0-57.13,0-114.25.16-171.37,0-4.57-1.3-5.4-5.53-5.39q-84.72.21-169.45.08c-7.29,0-6.49.93-6.49-6.25q0-86.94,0-173.87C.36,2.93.88,1.39,0,0H185q0,88.89-.21,177.79c0,4.26,2.29,3.5,4.7,3.5,56.8,0,113.6.09,170.39-.14,5.3,0,6.13,1.55,6.12,6.37-.14,59.43,0,118.86,0,178.29ZM92.5,181.18c27.83,0,55.66-.11,83.49.12,4.72,0,5.74-1.44,5.73-5.9q-.22-83,0-165.89c0-5.27-1.65-6.26-6.52-6.25q-82.72.24-165.46,0c-4.71,0-6.18,1-6.16,6q.27,83.19,0,166.39c0,4.82,1.57,5.67,5.92,5.64C37.18,181.1,64.84,181.18,92.5,181.18Zm270.11,92.7c0-27.8-.08-55.61.09-83.41,0-4.35-.83-6-5.66-6q-83.44.27-166.9,0c-4.07,0-5.32.92-5.3,5.16q.21,83.67,0,167.33c0,4.34,1,5.54,5.5,5.53q83.21-.24,166.4,0c5,0,6-1.64,6-6.27C362.51,328.82,362.61,301.35,362.61,273.88Z"/><path class="cls-2" d="M92.5,181.18c-27.66,0-55.32-.08-83,.09-4.35,0-5.93-.82-5.92-5.64q.28-83.19,0-166.39c0-4.94,1.45-6,6.16-6q82.73.24,165.46,0c4.87,0,6.54,1,6.52,6.25q-.31,83,0,165.89c0,4.46-1,5.93-5.73,5.9C148.16,181.07,120.33,181.18,92.5,181.18Z"/><path class="cls-2" d="M362.61,273.88c0,27.47-.1,54.94.1,82.41,0,4.63-1,6.28-6,6.27q-83.21-.27-166.4,0c-4.46,0-5.51-1.19-5.5-5.53q.22-83.67,0-167.33c0-4.24,1.23-5.17,5.3-5.16q83.45.21,166.9,0c4.83,0,5.69,1.61,5.66,6C362.53,218.27,362.61,246.08,362.61,273.88Z"/></g></g></svg>